<mxfile host="app.diagrams.net" modified="2024-03-17T22:00:28.626Z" agent="Mozilla/5.0 (X11; Linux x86_64) AppleWebKit/537.36 (KHTML, like Gecko) Chrome/122.0.0.0 Safari/537.36" version="24.0.7" etag="JbWBOaqgS-eSPGeiwOJO" type="github">
  <diagram name="Page-1" id="bw7EV-g0r8fkdXiM0yzg">
    <mxGraphModel>
      <root>
        <mxCell id="0" />
        <mxCell id="1" parent="0" />
      </root>
    </mxGraphModel>
  </diagram>
</mxfile>
